<?xml version="1.0" standalone="no"?>
<!DOCTYPE svg PUBLIC "-//W3C//DTD SVG 20010904//EN"
 "http://www.w3.org/TR/2001/REC-SVG-20010904/DTD/svg10.dtd">
<svg version="1.0" xmlns="http://www.w3.org/2000/svg"
 width="400.000000pt" height="400.000000pt" viewBox="0 0 400.000000 400.000000"
 preserveAspectRatio="xMidYMid meet">
<metadata>
Created by potrace 1.14, written by Peter Selinger 2001-2017
</metadata>
<g transform="translate(0.000000,400.000000) scale(0.100000,-0.100000)"
fill="#000000" stroke="none">
<path d="M2018 3825 c-2 -1 -28 -5 -59 -8 -47 -5 -105 -16 -164 -31 -12 -4
-36 -12 -97 -36 -100 -39 -209 -134 -253 -220 -16 -32 -33 -49 -57 -58 -152
-59 -226 -128 -306 -287 -68 -137 -94 -265 -107 -520 -3 -66 -11 -145 -17
-175 -20 -104 -24 -150 -20 -192 27 -232 -42 -583 -139 -707 -20 -25 -17 -41
7 -41 15 0 113 71 150 107 15 16 16 14 11 -23 -7 -50 -62 -224 -90 -282 -14
-30 -17 -46 -9 -54 11 -11 32 3 141 90 29 24 55 41 57 39 8 -8 -40 -158 -77
-236 -50 -107 -40 -123 33 -56 29 27 56 54 60 59 15 22 20 -5 11 -52 -20 -102
3 -97 127 28 55 56 100 100 100 98 0 -2 -7 -39 -15 -82 -13 -68 -21 -85 -56
-123 -22 -25 -52 -69 -65 -99 -16 -36 -30 -54 -41 -54 -38 -1 -65 -37 -103
-140 -7 -19 -27 -53 -44 -75 -28 -37 -31 -46 -30 -111 l1 -72 -56 -25 c-31
-14 -82 -35 -114 -46 -155 -55 -219 -107 -276 -224 -32 -67 -71 -182 -71 -211
0 -3 698 -6 1551 -6 l1551 0 -6 48 c-17 136 -80 239 -176 287 -19 10 -84 53
-145 96 -98 69 -185 113 -290 146 -26 8 -30 15 -41 74 -7 36 -19 82 -28 104
-23 55 -84 125 -122 141 -35 15 -39 19 -110 129 -25 39 -54 79 -64 90 -9 11
-20 31 -23 44 -5 21 -2 19 24 -12 51 -61 63 -51 55 46 l-7 82 22 -35 c116
-185 179 -248 179 -177 0 13 -6 47 -14 77 -8 30 -16 69 -19 85 -3 17 -8 48
-12 70 l-6 40 23 -30 c34 -44 127 -135 139 -135 21 0 18 30 -15 125 -33 99
-51 165 -44 165 2 0 22 -24 43 -52 91 -121 197 -228 226 -228 10 0 19 4 19 8
0 7 -39 103 -85 207 -21 48 -66 188 -61 192 2 2 15 -15 29 -39 57 -98 99 -97
66 2 -10 30 -20 66 -23 80 -3 14 -7 36 -11 50 -37 161 -50 467 -23 560 8 25
13 56 11 70 -1 14 -4 97 -7 185 -16 434 -14 417 -43 540 -18 79 -66 195 -99
240 -12 17 -39 62 -59 100 -166 310 -376 443 -712 450 -67 1 -124 1 -125 0z"/>
</g>
</svg>
