<?xml version="1.0" standalone="no"?>
<!DOCTYPE svg PUBLIC "-//W3C//DTD SVG 20010904//EN"
 "http://www.w3.org/TR/2001/REC-SVG-20010904/DTD/svg10.dtd">
<svg version="1.0" xmlns="http://www.w3.org/2000/svg"
 width="500.000000pt" height="500.000000pt" viewBox="0 0 500.000000 500.000000"
 preserveAspectRatio="xMidYMid meet">
<metadata>
Created by potrace 1.14, written by Peter Selinger 2001-2017
</metadata>
<g transform="translate(0.000000,500.000000) scale(0.100000,-0.100000)"
fill="#000000" stroke="none">
<path d="M2457 4625 c-36 -12 -65 -31 -79 -49 -6 -10 -15 -12 -77 -21 -40 -5
-123 -36 -117 -42 3 -3 -6 -15 -19 -27 -33 -31 -47 -70 -51 -141 -4 -69 -7
-92 -17 -101 -3 -4 -2 -14 2 -23 5 -9 10 -41 12 -71 3 -38 10 -60 23 -72 10
-10 15 -18 10 -18 -5 0 9 -16 31 -35 22 -19 46 -35 53 -35 25 0 -1 -35 -28
-36 -22 -1 -52 -16 -74 -36 -11 -10 -22 -18 -25 -18 -3 0 -21 -23 -40 -50 -19
-28 -37 -50 -41 -50 -5 0 -11 -11 -14 -25 -4 -14 -11 -23 -15 -20 -5 3 -12 -8
-16 -25 -4 -16 -10 -30 -15 -30 -4 0 -11 -11 -14 -25 -4 -14 -10 -24 -14 -21
-16 10 -74 -94 -88 -156 -1 -5 -3 -10 -4 -13 -1 -3 -3 -8 -4 -12 -1 -5 -8 -26
-15 -48 -26 -85 -39 -192 -35 -286 4 -105 11 -176 19 -190 3 -4 -2 -17 -12
-27 -10 -10 -24 -29 -31 -41 -17 -29 -14 -149 5 -204 8 -22 12 -46 9 -54 -3
-7 -1 -13 5 -13 6 0 9 -6 6 -14 -3 -8 -3 -17 1 -21 3 -3 7 -16 8 -28 1 -12 6
-40 12 -62 11 -43 12 -75 3 -75 -3 0 -5 -19 -5 -41 1 -23 -3 -58 -8 -78 -5
-20 -10 -44 -11 -53 -1 -10 -4 -18 -8 -18 -3 0 -4 -26 -2 -57 2 -32 5 -84 6
-116 2 -47 7 -61 22 -70 24 -13 50 -38 50 -48 0 -4 3 -11 8 -15 12 -12 8 -26
-5 -18 -10 6 -10 4 0 -8 13 -16 11 -86 -3 -108 -3 -6 -1 -10 4 -10 6 0 10 -6
9 -12 -2 -7 4 -14 12 -14 8 -1 21 -2 28 -3 7 0 17 -12 22 -26 5 -14 17 -25 27
-25 13 0 14 -3 5 -12 -17 -17 -15 -25 8 -31 11 -3 20 0 21 6 0 7 4 3 8 -8 6
-16 7 -44 2 -76 -1 -4 -25 -18 -53 -33 -29 -14 -66 -37 -83 -52 -16 -15 -45
-33 -62 -40 -18 -8 -33 -19 -33 -25 0 -5 -4 -8 -9 -4 -5 3 -13 0 -16 -6 -4 -5
-13 -8 -21 -5 -8 3 -14 2 -14 -2 0 -8 -15 -15 -125 -62 -27 -12 -66 -29 -85
-37 -19 -9 -39 -17 -45 -18 -5 -2 -66 -30 -135 -63 -69 -32 -143 -68 -165 -78
-63 -29 -209 -115 -217 -127 -4 -7 -8 -8 -8 -4 0 11 -137 -97 -181 -144 -21
-21 -34 -40 -31 -43 3 -3 1 -6 -5 -6 -16 0 -93 -129 -108 -180 -4 -14 -15 -34
-24 -44 -9 -11 -11 -16 -4 -12 9 5 8 -1 -1 -20 -8 -14 -27 -72 -42 -127 -19
-70 -39 -118 -63 -152 -30 -43 -36 -59 -38 -114 -2 -36 -6 -67 -10 -70 -5 -3
-9 -27 -10 -53 l-1 -48 2123 0 2122 0 -4 61 c-2 34 -8 70 -13 79 -5 10 -7 19
-5 22 8 7 -44 200 -58 216 -6 8 -10 17 -8 19 5 6 -20 63 -29 63 -3 0 -7 6 -7
13 0 11 -69 126 -93 154 -5 7 -10 19 -10 28 0 9 -4 14 -9 11 -4 -3 -13 6 -19
19 -7 16 -20 25 -34 26 -13 0 -18 3 -11 5 17 7 -26 54 -49 54 -10 0 -18 7 -18
15 0 8 -3 14 -7 13 -5 -1 -28 9 -52 22 -24 14 -55 31 -70 39 -14 8 -32 20 -39
28 -8 7 -17 11 -21 8 -5 -2 -17 5 -29 15 -12 11 -28 20 -36 20 -8 0 -16 3 -18
8 -1 4 -25 18 -53 32 -27 14 -60 34 -72 45 -36 34 -66 55 -78 55 -7 0 -20 9
-30 20 -10 11 -22 20 -28 20 -5 0 -36 18 -68 40 -32 22 -63 40 -67 40 -5 0
-17 9 -27 20 -10 11 -24 20 -32 20 -7 0 -13 5 -13 10 0 6 -6 10 -12 10 -7 0
-31 14 -52 30 -22 17 -46 30 -53 30 -7 0 -13 3 -13 8 0 4 -15 16 -33 25 -19
10 -45 28 -58 40 -13 12 -37 29 -54 37 -36 18 -115 70 -133 86 -6 7 -20 15
-30 19 -11 3 -25 16 -32 30 -7 13 -16 23 -20 20 -3 -2 -11 9 -17 26 -8 19 -8
29 -1 29 6 0 6 6 -2 15 -9 10 -10 35 -6 82 3 38 7 78 8 90 1 12 5 21 9 20 4
-1 7 1 8 6 0 4 8 21 16 37 8 16 15 31 14 32 0 2 4 16 10 31 6 16 11 37 11 47
0 11 9 42 20 70 14 36 16 50 7 50 -8 0 -9 3 -1 8 11 7 13 14 17 67 1 14 5 25
10 25 4 0 7 14 7 30 0 31 14 48 74 90 19 14 47 48 62 75 15 28 30 52 33 55 3
3 7 12 8 20 1 8 11 41 23 73 35 99 47 243 24 287 -8 14 -14 21 -14 16 0 -5 -9
1 -20 14 -16 18 -19 31 -13 59 3 20 7 45 7 56 1 11 4 22 8 25 12 10 22 116 23
245 0 186 -12 239 -80 346 -5 9 -20 34 -32 55 -26 47 -73 111 -73 100 0 -5
-13 6 -30 24 -16 18 -30 28 -30 24 0 -5 -4 -4 -8 1 -4 6 -16 15 -27 21 -11 6
-41 22 -67 37 -25 14 -48 24 -50 21 -3 -2 -5 3 -5 11 0 8 3 13 5 10 3 -3 14 3
25 12 13 11 17 12 12 4 -5 -9 2 -7 18 5 15 10 27 22 27 27 0 4 8 7 17 7 9 0
13 3 10 7 -4 3 -1 13 7 22 39 45 55 90 52 150 -4 58 -21 126 -37 146 -6 9 -6
44 1 53 2 1 4 7 5 12 1 6 4 11 5 13 8 7 5 64 -3 75 -5 6 -7 12 -3 12 3 0 -7
14 -22 30 -16 17 -36 30 -44 30 -8 0 -19 5 -25 11 -6 6 -26 13 -44 16 -19 2
-54 15 -79 28 -58 31 -106 36 -183 20 -34 -7 -65 -11 -69 -9 -3 2 -8 -2 -10
-8 -3 -8 -16 -1 -36 19 -18 17 -32 29 -32 26 0 -3 -6 0 -14 6 -21 18 -67 20
-109 6z"/>
</g>
</svg>
